<svg width="60" height="60" viewBox="0 0 60 60" fill="none" xmlns="http://www.w3.org/2000/svg">
<rect width="60" height="60" fill="#ECDCDC"/>
<g id="HOME THEME" clip-path="url(#clip0_75_8)">
<rect width="1440" height="3883" transform="translate(-172 -1687)" fill="#FAFFF7"/>
<g id="Frame 75">
<g id="Frame 74">
<g id="5">
<rect width="278" height="268" transform="translate(-45 -40)" fill="#18473D"/>
<path id="Vector" d="M20 60C18.1667 60 16.5978 59.413 15.2933 58.239C13.9889 57.065 13.3356 55.652 13.3333 54V42H8C5.77778 42 3.88889 41.3 2.33333 39.9C0.777778 38.5 0 36.8 0 34.8C0 33.35 0.444445 32.013 1.33333 30.789C2.22222 29.565 3.38889 28.652 4.83333 28.05L26.6667 19.35V17.4C24.6667 16.75 23.0556 15.663 21.8333 14.139C20.6111 12.615 20 10.902 20 9C20 6.5 20.9722 4.375 22.9167 2.625C24.8611 0.875 27.2222 0 30 0C32 0 33.8333 0.5 35.5 1.5C37.1667 2.5 38.3889 3.8 39.1667 5.4L39.5 6.675C39.5 7.525 39.18 8.238 38.54 8.814C37.9 9.39 37.1089 9.677 36.1667 9.675C35.4444 9.675 34.82 9.5 34.2933 9.15C33.7667 8.8 33.3633 8.35 33.0833 7.8C32.8033 7.25 32.3867 6.813 31.8333 6.489C31.28 6.165 30.6689 6.002 30 6C29.0556 6 28.2644 6.288 27.6267 6.864C26.9889 7.44 26.6689 8.152 26.6667 9C26.6644 9.848 26.9844 10.561 27.6267 11.139C28.2689 11.717 29.06 12.004 30 12C30.94 11.996 31.7322 12.284 32.3767 12.864C33.0211 13.444 33.34 14.156 33.3333 15V19.35L55.1667 28.05C56.6111 28.65 57.7778 29.563 58.6667 30.789C59.5556 32.015 60 33.352 60 34.8C60 36.8 59.2222 38.5 57.6667 39.9C56.1111 41.3 54.2222 42 52 42H46.6667V54C46.6667 55.65 46.0144 57.063 44.71 58.239C43.4056 59.415 41.8356 60.002 40 60H20ZM8 36H14.25C14.8611 35.1 15.6667 34.375 16.6667 33.825C17.6667 33.275 18.7778 33 20 33H40C41.2222 33 42.3333 33.275 43.3333 33.825C44.3333 34.375 45.1389 35.1 45.75 36H52C52.3889 36 52.7089 35.875 52.96 35.625C53.2111 35.375 53.3356 35.05 53.3333 34.65C53.3333 34.4 53.2644 34.187 53.1267 34.011C52.9889 33.835 52.78 33.698 52.5 33.6L30 24.6L7.5 33.6C7.22222 33.7 7.01444 33.838 6.87667 34.014C6.73889 34.19 6.66889 34.402 6.66667 34.65C6.66667 35.05 6.79222 35.375 7.04333 35.625C7.29444 35.875 7.61333 36 8 36Z" fill="#C5AC8D"/>
</g>
</g>
</g>
</g>
<defs>
<clipPath id="clip0_75_8">
<rect width="1440" height="3883" fill="white" transform="translate(-172 -1687)"/>
</clipPath>
</defs>
</svg>
