<svg width="60" height="60" viewBox="0 0 60 60" fill="none" xmlns="http://www.w3.org/2000/svg">
<path d="M43.125 5.625C43.125 4.63044 43.5201 3.67661 44.2234 2.97335C44.9266 2.27009 45.8804 1.875 46.875 1.875H54.375C55.3696 1.875 56.3234 2.27009 57.0266 2.97335C57.7299 3.67661 58.125 4.63044 58.125 5.625V16.875C58.125 17.8696 57.7299 18.8234 57.0266 19.5266C56.3234 20.2299 55.3696 20.625 54.375 20.625H52.5V56.25C52.5 56.7473 52.3025 57.2242 51.9508 57.5758C51.5992 57.9275 51.1223 58.125 50.625 58.125C50.1277 58.125 49.6508 57.9275 49.2992 57.5758C48.9475 57.2242 48.75 56.7473 48.75 56.25V20.625H46.875C45.8804 20.625 44.9266 20.2299 44.2234 19.5266C43.5201 18.8234 43.125 17.8696 43.125 16.875V5.625ZM40.3125 5.625H19.5131C17.8067 5.62487 16.1512 6.20666 14.82 7.27434C13.4888 8.34201 12.5615 9.83171 12.1912 11.4975L10.995 16.875H9.375C8.87772 16.875 8.40081 17.0725 8.04918 17.4242C7.69754 17.7758 7.5 18.2527 7.5 18.75C7.5 19.2473 7.69754 19.7242 8.04918 20.0758C8.40081 20.4275 8.87772 20.625 9.375 20.625H10.1625L9.54375 23.4094C8.35805 24.0538 7.36817 25.0061 6.67848 26.166C5.98879 27.326 5.62484 28.6505 5.625 30V48.75C5.625 50.2418 6.21763 51.6726 7.27252 52.7275C8.32742 53.7824 9.75816 54.375 11.25 54.375H13.125C14.6168 54.375 16.0476 53.7824 17.1025 52.7275C18.1574 51.6726 18.75 50.2418 18.75 48.75V46.875H41.25V48.75C41.2496 50.0796 41.7202 51.3664 42.5783 52.382C43.4364 53.3977 44.6265 54.0765 45.9375 54.2981V50.3737C45.6525 50.2092 45.4158 49.9725 45.2512 49.6875C45.0867 49.4024 45 49.0791 45 48.75V46.875H45.9375V23.3719C45.0726 23.2469 44.2413 22.9505 43.4925 22.5H13.5862L15.8513 12.3112C16.0364 11.4785 16.4999 10.7338 17.1653 10.2C17.8307 9.66614 18.6582 9.37515 19.5113 9.375H40.3125V5.625ZM9.375 48.75V46.875H15V48.75C15 49.2473 14.8025 49.7242 14.4508 50.0758C14.0992 50.4275 13.6223 50.625 13.125 50.625H11.25C10.7527 50.625 10.2758 50.4275 9.92418 50.0758C9.57254 49.7242 9.375 49.2473 9.375 48.75ZM25.3125 39.375C24.8152 39.375 24.3383 39.1775 23.9867 38.8258C23.635 38.4742 23.4375 37.9973 23.4375 37.5C23.4375 37.0027 23.635 36.5258 23.9867 36.1742C24.3383 35.8225 24.8152 35.625 25.3125 35.625H34.6875C35.1848 35.625 35.6617 35.8225 36.0133 36.1742C36.365 36.5258 36.5625 37.0027 36.5625 37.5C36.5625 37.9973 36.365 38.4742 36.0133 38.8258C35.6617 39.1775 35.1848 39.375 34.6875 39.375H25.3125ZM20.625 32.8125C20.625 33.5584 20.3287 34.2738 19.8012 34.8012C19.2738 35.3287 18.5584 35.625 17.8125 35.625C17.0666 35.625 16.3512 35.3287 15.8238 34.8012C15.2963 34.2738 15 33.5584 15 32.8125C15 32.0666 15.2963 31.3512 15.8238 30.8238C16.3512 30.2963 17.0666 30 17.8125 30C18.5584 30 19.2738 30.2963 19.8012 30.8238C20.3287 31.3512 20.625 32.0666 20.625 32.8125ZM42.1875 30C42.9334 30 43.6488 30.2963 44.1762 30.8238C44.7037 31.3512 45 32.0666 45 32.8125C45 33.5584 44.7037 34.2738 44.1762 34.8012C43.6488 35.3287 42.9334 35.625 42.1875 35.625C41.4416 35.625 40.7262 35.3287 40.1988 34.8012C39.6713 34.2738 39.375 33.5584 39.375 32.8125C39.375 32.0666 39.6713 31.3512 40.1988 30.8238C40.7262 30.2963 41.4416 30 42.1875 30Z" fill="#C5AC8D"/>
</svg>
