<svg width="60" height="47" viewBox="0 0 60 47" fill="none" xmlns="http://www.w3.org/2000/svg">
<path d="M5.84357 38.1743H54.1564C58.0446 38.1743 60 36.31 60 32.3318V6.27573C60 2.29751 58.0446 0.433228 54.1564 0.433228H5.84357C1.95429 0.432157 0 2.29644 0 6.27573V32.3318C0 36.31 1.95536 38.1743 5.84357 38.1743ZM46.5396 44.4957C46.5396 43.3129 45.5861 42.3582 44.4257 42.3582H15.5293C14.3689 42.3582 13.4368 43.3118 13.4368 44.4947C13.4368 45.6775 14.3689 46.6322 15.5282 46.6322H44.4246C44.9883 46.6282 45.5273 46.401 45.9237 46.0004C46.3202 45.5997 46.5416 45.0593 46.5396 44.4957Z" fill="#C5AC8D"/>
</svg>
