<svg width="40" height="50" viewBox="0 0 40 50" fill="none" xmlns="http://www.w3.org/2000/svg">
<path d="M12.5 15C13.2083 15 13.8025 14.76 14.2825 14.28C14.7625 13.8 15.0017 13.2067 15 12.5V10C15 9.29167 14.76 8.69833 14.28 8.22C13.8 7.74167 13.2067 7.50167 12.5 7.5C11.7933 7.49833 11.2 7.73833 10.72 8.22C10.24 8.70167 10 9.295 10 10V12.5C10 13.2083 10.24 13.8025 10.72 14.2825C11.2 14.7625 11.7933 15.0017 12.5 15ZM12.5 37.5C13.2083 37.5 13.8025 37.26 14.2825 36.78C14.7625 36.3 15.0017 35.7067 15 35V27.5C15 26.7917 14.76 26.1983 14.28 25.72C13.8 25.2417 13.2067 25.0017 12.5 25C11.7933 24.9983 11.2 25.2383 10.72 25.72C10.24 26.2017 10 26.795 10 27.5V35C10 35.7083 10.24 36.3025 10.72 36.7825C11.2 37.2625 11.7933 37.5017 12.5 37.5ZM5 50C3.625 50 2.44833 49.5108 1.47 48.5325C0.491666 47.5542 0.00166667 46.3767 0 45V22.5H40V45C40 46.375 39.5108 47.5525 38.5325 48.5325C37.5542 49.5125 36.3767 50.0017 35 50H5ZM0 17.5V5C0 3.625 0.49 2.44833 1.47 1.47C2.45 0.491667 3.62667 0.00166667 5 0H35C36.375 0 37.5525 0.49 38.5325 1.47C39.5125 2.45 40.0017 3.62667 40 5V17.5H0Z" fill="#C5AC8D"/>
</svg>
