<svg width="43" height="41" viewBox="0 0 43 41" fill="none" xmlns="http://www.w3.org/2000/svg">
<path d="M32.8375 38.4375C31.1981 38.4375 28.8952 37.8721 25.4468 36.0351C21.2535 33.793 18.01 31.7229 13.8393 27.7567C9.81818 23.9249 7.86134 21.4441 5.12261 16.6923C2.02863 11.327 2.55605 8.5147 3.14562 7.31272C3.84773 5.87612 4.8841 5.01688 6.22365 4.16405C6.9845 3.68874 7.78968 3.28128 8.62896 2.94686C8.71294 2.91243 8.79105 2.8796 8.86076 2.84997C9.27648 2.6714 9.90636 2.40153 10.7042 2.68981C11.2367 2.8804 11.712 3.27038 12.4561 3.97106C13.9821 5.40606 16.0675 8.60198 16.8368 10.1715C17.3533 11.2293 17.6951 11.9276 17.6959 12.7108C17.6959 13.6277 17.2122 14.3348 16.6251 15.0979C16.5151 15.2413 16.4059 15.3782 16.3001 15.5111C15.661 16.3119 15.5207 16.5433 15.6131 16.9565C15.8004 17.7869 17.197 20.259 19.4923 22.4427C21.7876 24.6264 24.3055 25.874 25.1798 26.0518C25.6316 26.1439 25.8793 26.0046 26.7461 25.3735C26.8704 25.2831 26.998 25.1894 27.1316 25.0957C28.0268 24.4607 28.734 24.0114 29.6729 24.0114H29.678C30.4951 24.0114 31.1947 24.3493 32.3537 24.9067C33.8654 25.6338 37.318 27.5965 38.8323 29.0531C39.5688 29.761 39.9795 30.2127 40.1802 30.7196C40.4825 31.4827 40.1978 32.0809 40.0122 32.4813C39.9812 32.5477 39.9467 32.6206 39.9106 32.7015C39.5571 33.5003 39.1273 34.2664 38.6265 34.9901C37.7337 36.2634 36.8292 37.2491 35.3192 37.9194C34.5438 38.2691 33.6952 38.4463 32.8375 38.4375Z" fill="#C5AC8D"/>
</svg>
