<svg width="43" height="41" viewBox="0 0 43 41" fill="none" xmlns="http://www.w3.org/2000/svg">
<path d="M21.4997 19.6459C20.3117 19.6459 19.1724 19.196 18.3324 18.395C17.4924 17.5941 17.0205 16.5078 17.0205 15.3751C17.0205 14.2424 17.4924 13.1561 18.3324 12.3551C19.1724 11.5542 20.3117 11.1042 21.4997 11.1042C22.6876 11.1042 23.8269 11.5542 24.6669 12.3551C25.5069 13.1561 25.9788 14.2424 25.9788 15.3751C25.9788 15.9359 25.863 16.4913 25.6379 17.0095C25.4128 17.5276 25.0829 17.9984 24.6669 18.395C24.251 18.7916 23.7572 19.1062 23.2138 19.3208C22.6703 19.5354 22.0879 19.6459 21.4997 19.6459ZM21.4997 3.41675C18.1734 3.41675 14.9834 4.67664 12.6314 6.91926C10.2794 9.16189 8.95801 12.2035 8.95801 15.3751C8.95801 24.3438 21.4997 37.5834 21.4997 37.5834C21.4997 37.5834 34.0413 24.3438 34.0413 15.3751C34.0413 12.2035 32.72 9.16189 30.368 6.91926C28.016 4.67664 24.8259 3.41675 21.4997 3.41675Z" fill="#C5AC8D"/>
</svg>
