<svg width="43" height="41" viewBox="0 0 43 41" fill="none" xmlns="http://www.w3.org/2000/svg">
<path d="M39.4163 12.8723V29.0417C39.4164 30.3489 38.8926 31.6068 37.952 32.5579C37.0115 33.509 35.7253 34.0815 34.3567 34.1581L34.0413 34.1667H8.95801C7.58701 34.1668 6.26779 33.6673 5.27029 32.7705C4.27279 31.8737 3.6724 30.6473 3.59197 29.3424L3.58301 29.0417V12.8723L20.5053 23.6297L20.7131 23.7424C20.9581 23.8565 21.2271 23.9159 21.4997 23.9159C21.7723 23.9159 22.0413 23.8565 22.2862 23.7424L22.4941 23.6297L39.4163 12.8723Z" fill="#C5AC8D"/>
<path d="M34.0409 6.83325C35.9759 6.83325 37.6726 7.807 38.6186 9.27104L21.4993 20.1531L4.37988 9.27104C4.82922 8.57545 5.44645 7.99236 6.1801 7.57038C6.91375 7.1484 7.74258 6.89977 8.59747 6.84521L8.95759 6.83325H34.0409Z" fill="#C5AC8D"/>
</svg>
