<svg width="60" height="60" viewBox="0 0 60 60" fill="none" xmlns="http://www.w3.org/2000/svg">
<path d="M14.23 47.5V24.865L6.51 30.625L5 28.645L30 10L40.865 18.0575V12.5H45.5775V21.5975L55.0475 28.645L53.54 30.625L45.8175 24.865V47.5H33.0775V34.425H26.9225V47.5H14.23ZM16.73 45H24.425V31.925H35.58V45H43.32V23.025L30 13.14L16.73 23.025V45ZM25.48 25.015H34.52C34.52 23.8417 34.0683 22.8758 33.165 22.1175C32.26 21.3592 31.205 20.98 30 20.98C28.795 20.98 27.7408 21.3575 26.8375 22.1125C25.9342 22.8675 25.4817 23.8367 25.48 25.015ZM24.425 45V31.925H35.58H24.4225L24.425 45Z" fill="#C5AC8D"/>
</svg>
