<svg width="69" height="63" viewBox="0 0 69 63" fill="none" xmlns="http://www.w3.org/2000/svg">
<path d="M5.75 31.5C5.75 21.6011 5.75 16.6504 9.1195 13.5765C12.4861 10.5 17.9084 10.5 28.75 10.5H40.25C51.0916 10.5 56.5139 10.5 59.8805 13.5765C63.25 16.6504 63.25 21.6011 63.25 31.5C63.25 41.3989 63.25 46.3496 59.8805 49.4235C56.5139 52.5 51.0916 52.5 40.25 52.5H28.75C17.9084 52.5 12.4861 52.5 9.1195 49.4235C5.75 46.3496 5.75 41.3989 5.75 31.5Z" stroke="#C5AC8D" stroke-width="3.75"/>
<path opacity="0.5" d="M28.75 42H17.25M40.25 42H35.9375M5.75 26.25H63.25" stroke="#C5AC8D" stroke-width="3.75" stroke-linecap="round"/>
</svg>
