<svg width="60" height="60" viewBox="0 0 60 60" fill="none" xmlns="http://www.w3.org/2000/svg">
<path d="M23.5 21.4048C20.7315 21.4048 18.3602 20.4048 16.3862 18.4048C14.4122 16.4048 13.4263 14.0035 13.4286 11.2008C13.4308 8.39804 14.4167 5.99442 16.3862 3.98988C18.3557 1.98535 20.727 0.988758 23.5 1.0001C26.273 1.01143 28.6443 2.00916 30.6138 3.99329C32.5833 5.97741 33.5692 8.38103 33.5714 11.2042C33.5737 14.0273 32.5878 16.4286 30.6138 18.4082C28.6398 20.3878 26.2685 21.3844 23.5 21.4048ZM0 46V40.4014C0 38.9977 0.402858 37.6848 1.20857 36.4626C2.01652 35.2381 3.102 34.288 4.465 33.6123C7.63414 32.0726 10.8055 30.9184 13.9791 30.1497C17.1505 29.3787 20.3241 28.9932 23.5 28.9932C26.6759 28.9932 29.8506 29.3787 33.0242 30.1497C36.1978 30.9207 39.367 32.0749 42.5316 33.6123C43.8969 34.288 44.9824 35.2381 45.7881 36.4626C46.596 37.6848 47 38.9977 47 40.4014V46H0ZM3.35714 42.5986H43.6429V40.4014C43.6429 39.6485 43.4023 38.9399 42.9211 38.2755C42.4421 37.6134 41.7785 37.0533 40.9303 36.5953C38.1685 35.2393 35.3194 34.2007 32.383 33.4796C29.4466 32.7585 26.4856 32.3969 23.5 32.3946C20.5144 32.3923 17.5534 32.7529 14.617 33.4762C11.6806 34.1996 8.83152 35.2381 6.06972 36.5919C5.21924 37.0499 4.55564 37.61 4.07893 38.2721C3.59774 38.9365 3.35714 39.6463 3.35714 40.4014V42.5986ZM23.5 18.0069C25.3464 18.0069 26.9276 17.3402 28.2436 16.0069C29.5596 14.6735 30.2165 13.0704 30.2143 11.1974C30.212 9.32434 29.5552 7.72344 28.2436 6.39464C26.9321 5.06585 25.3509 4.39918 23.5 4.39465C21.6491 4.39011 20.069 5.05678 18.7597 6.39464C17.4504 7.73251 16.7924 9.33341 16.7857 11.1974C16.779 13.0613 17.437 14.6633 18.7597 16.0035C20.0824 17.3436 21.6625 18.0091 23.5 18.0001" fill="#C5AC8D"/>
</svg>
