<svg width="43" height="41" viewBox="0 0 43 41" fill="none" xmlns="http://www.w3.org/2000/svg">
<g clip-path="url(#clip0_498_400)">
<path d="M40.5225 4.4043C40.8864 5.00488 41.2153 5.57878 41.5093 6.12598C41.8032 6.67318 42.0692 7.22705 42.3071 7.7876C42.5451 8.34814 42.7131 8.92871 42.811 9.5293C42.909 10.1299 42.972 10.7972 43 11.5312C43 12.5856 42.86 13.5999 42.5801 14.5742C42.3001 15.5485 41.8942 16.4694 41.3623 17.3369C40.8304 18.2044 40.1935 18.9852 39.4517 19.6792C38.7098 20.3732 37.8909 20.9738 36.9951 21.481C36.0993 21.9881 35.1405 22.3752 34.1187 22.6421C33.0968 22.909 32.026 23.0492 30.9062 23.0625C30.5843 23.0625 30.2624 23.0492 29.9404 23.0225C29.6185 22.9958 29.2896 22.9557 28.9536 22.9023L12.0308 39.0381C11.3589 39.6787 10.596 40.1659 9.74219 40.4995C8.88835 40.8332 7.98551 41 7.03369 41C6.06787 41 5.15804 40.8265 4.3042 40.4795C3.45036 40.1325 2.7085 39.652 2.07861 39.0381C1.44873 38.4242 0.944824 37.7101 0.566895 36.896C0.188965 36.0819 0 35.2144 0 34.2935C0 33.3993 0.174967 32.5451 0.524902 31.731C0.874837 30.9168 1.38574 30.1828 2.05762 29.5288L18.9805 13.3931C18.9245 13.0861 18.8825 12.7791 18.8545 12.4722C18.8265 12.1652 18.8125 11.8516 18.8125 11.5312C18.8125 10.4769 18.9525 9.46257 19.2324 8.48828C19.5124 7.514 19.9183 6.5931 20.4502 5.72559C20.9821 4.85807 21.619 4.07731 22.3608 3.3833C23.1027 2.68929 23.9215 2.0887 24.8174 1.58154C25.7132 1.07438 26.672 0.687337 27.6938 0.42041C28.7157 0.153483 29.7865 0.0133464 30.9062 0C31.6621 0 32.355 0.0533854 32.9849 0.160156C33.6147 0.266927 34.2306 0.433757 34.8325 0.660645C35.4344 0.887533 36.0153 1.13444 36.5752 1.40137C37.1351 1.66829 37.737 1.98861 38.3809 2.3623L30.1084 10.25L32.25 12.292L40.5225 4.4043ZM30.9062 20.5C32.208 20.5 33.4258 20.2664 34.5596 19.7993C35.6934 19.3322 36.6872 18.6916 37.541 17.8774C38.3949 17.0633 39.0667 16.1157 39.5566 15.0347C40.0466 13.9536 40.2985 12.7858 40.3125 11.5312C40.3125 10.557 40.1445 9.61605 39.8086 8.7085L32.25 15.8955L26.3291 10.25L33.8667 3.04297C32.9149 2.72266 31.9281 2.5625 30.9062 2.5625C29.6045 2.5625 28.3867 2.79606 27.2529 3.26318C26.1191 3.73031 25.1253 4.37093 24.2715 5.18506C23.4176 5.99919 22.7458 6.94678 22.2559 8.02783C21.766 9.10889 21.514 10.2767 21.5 11.5312C21.5 11.9984 21.542 12.4521 21.626 12.8926C21.71 13.333 21.8079 13.7734 21.9199 14.2139L3.96826 31.3506C3.56234 31.7376 3.2474 32.1847 3.02344 32.6919C2.79948 33.1991 2.6875 33.7329 2.6875 34.2935C2.6875 34.854 2.79948 35.3879 3.02344 35.895C3.2474 36.4022 3.56234 36.8426 3.96826 37.2163C4.37419 37.59 4.8361 37.8836 5.354 38.0972C5.87191 38.3107 6.4318 38.4242 7.03369 38.4375C7.62158 38.4375 8.18148 38.3307 8.71338 38.1172C9.24528 37.9036 9.71419 37.6034 10.1201 37.2163L28.0928 20.0996C28.5547 20.2064 29.0166 20.2998 29.4785 20.3799C29.9404 20.46 30.4163 20.5 30.9062 20.5Z" fill="#C5AC8D"/>
</g>
<defs>
<clipPath id="clip0_498_400">
<rect width="43" height="41" fill="white"/>
</clipPath>
</defs>
</svg>
