<svg width="60" height="60" viewBox="0 0 60 60" fill="none" xmlns="http://www.w3.org/2000/svg">
<path d="M48.0261 35.8919L38.3685 31.6698L38.3419 31.6578C37.8405 31.4486 37.2936 31.3646 36.7506 31.4135C36.2076 31.4624 35.6857 31.6426 35.232 31.9378C35.1786 31.9722 35.1272 32.0096 35.0783 32.0498L30.0885 36.1999C26.9274 34.7018 23.6638 31.5418 22.1283 28.4978L26.3882 23.5557C26.4292 23.5057 26.4682 23.4557 26.5051 23.4017C26.8012 22.9603 26.9808 22.4544 27.028 21.9289C27.0752 21.4034 26.9886 20.8746 26.7757 20.3897V20.3657L22.4358 10.9276C22.1544 10.2941 21.6706 9.76643 21.0565 9.42328C20.4425 9.08012 19.7311 8.93992 19.0287 9.0236C16.2509 9.38021 13.7011 10.7111 11.8556 12.7678C10.01 14.8245 8.995 17.4663 9.00002 20.1997C9.00002 36.0799 22.2431 49 38.5202 49C41.322 49.0049 44.0298 48.0146 46.1379 46.2141C48.246 44.4136 49.6102 41.926 49.9757 39.2159C50.0616 38.5308 49.9182 37.837 49.5669 37.2379C49.2155 36.6389 48.6751 36.1667 48.0261 35.8919ZM38.5202 45.7999C31.5632 45.7925 24.8933 43.093 19.974 38.2936C15.0547 33.4943 12.2876 26.987 12.28 20.1997C12.2723 18.2467 12.9936 16.3577 14.309 14.8855C15.6245 13.4133 17.4442 12.4586 19.4284 12.1996C19.4276 12.2076 19.4276 12.2156 19.4284 12.2236L23.7335 21.6237L19.4961 26.5718C19.453 26.62 19.4139 26.6715 19.3792 26.7258C19.0707 27.1876 18.8898 27.7194 18.8539 28.2695C18.8179 28.8196 18.9283 29.3695 19.1742 29.8658C21.0316 33.5718 24.8589 37.2779 28.6986 39.0879C29.211 39.3256 29.7779 39.4295 30.3438 39.3896C30.9098 39.3496 31.4554 39.1671 31.9274 38.8599C31.9801 38.8254 32.0308 38.788 32.0791 38.7479L37.0627 34.5998L46.6977 38.8099H46.7203C46.4581 40.7484 45.481 42.5274 43.9717 43.8139C42.4625 45.1005 40.5244 45.8065 38.5202 45.7999Z" fill="#C5AC8D"/>
</svg>
