<svg width="60" height="60" viewBox="0 0 60 60" fill="none" xmlns="http://www.w3.org/2000/svg">
<path d="M24.257 50.4025C24.5836 50.4025 24.9186 50.3292 25.262 50.1825C25.6053 50.0358 25.8828 49.8567 26.0945 49.645L45.5845 30.1525C46.2128 29.5242 46.6978 28.8825 47.0395 28.2275C47.3795 27.5692 47.5495 26.8475 47.5495 26.0625C47.5495 25.2675 47.3795 24.4958 47.0395 23.7475C46.6978 22.9975 46.2128 22.3142 45.5845 21.6975L36.2095 12.3225C35.5911 11.6942 34.9553 11.2333 34.302 10.94C33.6503 10.6467 32.927 10.5 32.132 10.5C31.347 10.5 30.6178 10.6467 29.9445 10.94C29.2711 11.2333 28.637 11.6933 28.042 12.32L25.862 14.5L30.487 19.1375C30.9836 19.6258 31.3545 20.1808 31.5995 20.8025C31.8428 21.4242 31.9645 22.055 31.9645 22.695C31.9645 23.9967 31.5386 25.0733 30.687 25.925C29.8353 26.7767 28.7595 27.2017 27.4595 27.2C26.8178 27.2 26.192 27.1025 25.582 26.9075C24.972 26.7125 24.4228 26.3708 23.9345 25.8825L19.152 21.1175L8.35698 31.91C8.10531 32.1633 7.91614 32.4508 7.78948 32.7725C7.66281 33.0942 7.59948 33.4192 7.59948 33.7475C7.59948 34.3375 7.78864 34.8233 8.16698 35.205C8.54364 35.5883 9.02698 35.78 9.61698 35.78C9.94364 35.78 10.2786 35.7067 10.622 35.56C10.9653 35.4117 11.2428 35.2317 11.4545 35.02L19.377 27.0975L21.147 28.8675L13.237 36.7925C12.9836 37.0442 12.7936 37.3308 12.667 37.6525C12.542 37.9758 12.4795 38.3008 12.4795 38.6275C12.4795 39.1858 12.6761 39.6617 13.0695 40.055C13.4628 40.4483 13.9386 40.6458 14.497 40.6475C14.8236 40.6475 15.1586 40.5733 15.502 40.425C15.8453 40.2767 16.1228 40.0975 16.3345 39.8875L24.8345 31.4025L26.6045 33.17L18.117 41.67C17.8953 41.8817 17.7136 42.1592 17.572 42.5025C17.4286 42.8458 17.357 43.1808 17.357 43.5075C17.357 44.0642 17.5545 44.5392 17.9495 44.9325C18.3428 45.3292 18.8186 45.5275 19.377 45.5275C19.7036 45.5275 20.0286 45.4642 20.352 45.3375C20.6753 45.2108 20.962 45.0208 21.212 44.7675L29.712 36.28L31.482 38.05L22.982 46.55C22.7303 46.8033 22.5411 47.1075 22.4145 47.4625C22.2878 47.8175 22.2245 48.1417 22.2245 48.435C22.2245 49.025 22.432 49.5008 22.847 49.8625C23.262 50.2242 23.732 50.405 24.257 50.405M24.242 52.905C22.957 52.905 21.857 52.435 20.942 51.495C20.027 50.5533 19.6253 49.3917 19.737 48.01C18.3203 48.0267 17.1411 47.6042 16.1995 46.7425C15.2578 45.8792 14.8103 44.6758 14.857 43.1325C13.3136 43.1492 12.097 42.7075 11.207 41.8075C10.317 40.9075 9.91198 39.7225 9.99198 38.2525C8.60198 38.2692 7.43864 37.8775 6.50198 37.0775C5.56698 36.2808 5.09948 35.1708 5.09948 33.7475C5.09948 33.1058 5.22364 32.4642 5.47198 31.8225C5.72031 31.1792 6.08698 30.6142 6.57198 30.1275L19.152 17.5625L25.607 24.0175C25.8186 24.2392 26.0803 24.4217 26.392 24.565C26.7036 24.7083 27.0545 24.7792 27.4445 24.7775C27.9795 24.7775 28.452 24.5908 28.862 24.2175C29.272 23.8442 29.4778 23.3575 29.4795 22.7575C29.4795 22.3675 29.4078 22.0175 29.2645 21.7075C29.1211 21.3958 28.9395 21.1342 28.7195 20.9225L20.1195 12.3225C19.4995 11.6942 18.8553 11.2333 18.187 10.94C17.5186 10.6467 16.787 10.5 15.992 10.5C15.207 10.5 14.4936 10.6467 13.852 10.94C13.212 11.2333 12.5778 11.6942 11.9495 12.3225L4.33948 19.9475C3.80281 20.4808 3.36948 21.1183 3.03948 21.86C2.70948 22.6 2.53448 23.3642 2.51448 24.1525C2.49781 24.7175 2.54614 25.26 2.65948 25.78C2.77281 26.3 2.95614 26.79 3.20948 27.25L1.31448 29.145C0.894477 28.475 0.566144 27.7033 0.329477 26.83C0.0928106 25.9567 -0.0163562 25.065 0.00197712 24.155C0.0219771 23.0183 0.249477 21.9308 0.684477 20.8925C1.11948 19.8542 1.74281 18.9283 2.55448 18.115L10.117 10.5525C10.9886 9.68917 11.9111 9.0475 12.8845 8.6275C13.8578 8.20917 14.9103 8 16.042 8C17.1736 8 18.217 8.21 19.172 8.63C20.1286 9.04833 21.0386 9.68917 21.902 10.5525L24.077 12.73L26.257 10.5525C27.1286 9.68917 28.0428 9.0475 28.9995 8.6275C29.9561 8.20917 31.0003 8 32.132 8C33.2636 8 34.3161 8.21 35.2895 8.63C36.2611 9.04833 37.1778 9.68917 38.0395 10.5525L47.3545 19.865C48.2161 20.7267 48.8811 21.6942 49.3495 22.7675C49.8178 23.8408 50.0511 24.9433 50.0495 26.075C50.0495 27.2083 49.8161 28.2525 49.3495 29.2075C48.8828 30.1625 48.2178 31.0725 47.3545 31.9375L27.862 51.4125C27.3436 51.9325 26.7786 52.3108 26.167 52.5475C25.557 52.7842 24.9153 52.9025 24.242 52.9025" fill="#C5AC8D"/>
</svg>
