<svg width="239" height="41" viewBox="0 0 239 41" fill="none" xmlns="http://www.w3.org/2000/svg">
<path d="M22.2565 3.41675C24.1784 3.42187 25.1538 3.43212 25.996 3.45604L26.3275 3.468C26.7101 3.48166 27.0877 3.49875 27.5438 3.51925C29.3615 3.60466 30.6017 3.89166 31.6899 4.31362C32.8174 4.74754 33.7673 5.33521 34.7171 6.28333C35.5858 7.13732 36.2579 8.17034 36.6868 9.3105C37.1088 10.3987 37.3958 11.639 37.4812 13.4583C37.5017 13.9127 37.5188 14.2903 37.5324 14.6747L37.5427 15.0061C37.5683 15.8466 37.5785 16.822 37.582 18.7439L37.5837 20.0183V22.2562C37.5879 23.5023 37.5748 24.7484 37.5444 25.9941L37.5341 26.3255C37.5205 26.7099 37.5034 27.0874 37.4829 27.5418C37.3975 29.3612 37.107 30.5997 36.6868 31.6897C36.2592 32.8304 35.5868 33.8637 34.7171 34.7168C33.8629 35.5852 32.8299 36.2573 31.6899 36.6865C30.6017 37.1085 29.3615 37.3955 27.5438 37.4809C27.1384 37.5 26.733 37.5171 26.3275 37.5322L25.996 37.5424C25.1538 37.5663 24.1784 37.5783 22.2565 37.5817L20.9821 37.5834H18.7459C17.4992 37.5877 16.2526 37.5746 15.0063 37.5441L14.6749 37.5339C14.2694 37.5185 13.8639 37.5009 13.4586 37.4809C11.6409 37.3955 10.4007 37.1085 9.31075 36.6865C8.17073 36.2584 7.13812 35.5861 6.28529 34.7168C5.41583 33.8632 4.74305 32.8301 4.31388 31.6897C3.89192 30.6015 3.60492 29.3612 3.5195 27.5418C3.50047 27.1365 3.48338 26.731 3.46825 26.3255L3.45971 25.9941C3.42823 24.7484 3.41399 23.5023 3.417 22.2562V18.7439C3.41223 17.4979 3.42476 16.2518 3.45458 15.0061L3.46654 14.6747C3.48021 14.2903 3.49729 13.9127 3.51779 13.4583C3.60321 11.639 3.89021 10.4004 4.31217 9.3105C4.74115 8.16917 5.41527 7.13583 6.287 6.28333C7.13962 5.4146 8.17154 4.74239 9.31075 4.31362C10.4007 3.89166 11.6392 3.60466 13.4586 3.51925C13.913 3.49875 14.2923 3.48166 14.6749 3.468L15.0063 3.45775C16.252 3.4274 17.4981 3.4143 18.7442 3.41846L22.2565 3.41675ZM20.5003 11.9584C18.2349 11.9584 16.0623 12.8583 14.4605 14.4602C12.8586 16.0621 11.9587 18.2347 11.9587 20.5001C11.9587 22.7655 12.8586 24.9381 14.4605 26.54C16.0623 28.1418 18.2349 29.0417 20.5003 29.0417C22.7657 29.0417 24.9383 28.1418 26.5402 26.54C28.1421 24.9381 29.042 22.7655 29.042 20.5001C29.042 18.2347 28.1421 16.0621 26.5402 14.4602C24.9383 12.8583 22.7657 11.9584 20.5003 11.9584ZM20.5003 15.3751C21.1734 15.375 21.8398 15.5074 22.4617 15.7649C23.0835 16.0223 23.6485 16.3997 24.1245 16.8756C24.6005 17.3514 24.9781 17.9163 25.2357 18.538C25.4934 19.1598 25.6261 19.8262 25.6262 20.4992C25.6263 21.1723 25.4939 21.8387 25.2364 22.4605C24.9789 23.0824 24.6015 23.6474 24.1257 24.1234C23.6499 24.5994 23.085 24.977 22.4632 25.2346C21.8415 25.4923 21.1751 25.625 20.502 25.6251C19.1428 25.6251 17.8392 25.0851 16.8781 24.124C15.917 23.1629 15.377 21.8593 15.377 20.5001C15.377 19.1408 15.917 17.8373 16.8781 16.8762C17.8392 15.915 19.1428 15.3751 20.502 15.3751M29.4708 9.39592C28.9044 9.39592 28.3613 9.6209 27.9608 10.0214C27.5604 10.4218 27.3354 10.965 27.3354 11.5313C27.3354 12.0977 27.5604 12.6408 27.9608 13.0413C28.3613 13.4418 28.9044 13.6667 29.4708 13.6667C30.0371 13.6667 30.5803 13.4418 30.9808 13.0413C31.3812 12.6408 31.6062 12.0977 31.6062 11.5313C31.6062 10.965 31.3812 10.4218 30.9808 10.0214C30.5803 9.6209 30.0371 9.39592 29.4708 9.39592Z" fill="white"/>
<path d="M81.4437 36.7976C83.0837 37.293 84.7407 37.5834 86.5003 37.5834C91.0311 37.5834 95.3763 35.7836 98.5801 32.5798C101.784 29.3761 103.584 25.0309 103.584 20.5001C103.584 18.2567 103.142 16.0352 102.283 13.9626C101.425 11.8899 100.166 10.0067 98.5801 8.42034C96.9937 6.83401 95.1105 5.57566 93.0378 4.71714C90.9652 3.85862 88.7437 3.41675 86.5003 3.41675C84.2569 3.41675 82.0355 3.85862 79.9628 4.71714C77.8902 5.57566 76.0069 6.83401 74.4206 8.42034C71.2168 11.6241 69.417 15.9693 69.417 20.5001C69.417 27.7605 73.9782 33.9959 80.4187 36.4559C80.2649 35.1234 80.1112 32.9197 80.4187 31.3992L82.3832 22.9601C82.3832 22.9601 81.8878 21.9692 81.8878 20.3976C81.8878 18.0401 83.357 16.2805 85.0312 16.2805C86.5003 16.2805 87.1837 17.3567 87.1837 18.7405C87.1837 20.2097 86.2099 22.3109 85.7145 24.3267C85.4241 26.0009 86.6028 27.4701 88.3112 27.4701C91.352 27.4701 93.7095 24.2242 93.7095 19.6459C93.7095 15.5459 90.7712 12.7442 86.5516 12.7442C81.7341 12.7442 78.8982 16.3317 78.8982 20.1072C78.8982 21.5763 79.3766 23.0626 80.1624 24.0363C80.3162 24.1388 80.3162 24.2755 80.2649 24.5317L79.7695 26.3938C79.7695 26.6842 79.5816 26.7867 79.2912 26.5817C77.1045 25.6251 75.8403 22.5159 75.8403 20.0047C75.8403 14.6063 79.667 9.70341 87.047 9.70341C92.9237 9.70341 97.502 13.923 97.502 19.5263C97.502 25.403 93.8632 30.118 88.6528 30.118C86.9957 30.118 85.3728 29.2297 84.792 28.1876L83.6474 32.2363C83.2545 33.7055 82.1782 35.6701 81.4437 36.8488V36.7976Z" fill="white"/>
<path d="M164.458 5.125C165.364 5.125 166.234 5.48497 166.874 6.12572C167.515 6.76647 167.875 7.63551 167.875 8.54167V32.4583C167.875 33.3645 167.515 34.2335 166.874 34.8743C166.234 35.515 165.364 35.875 164.458 35.875H140.542C139.636 35.875 138.766 35.515 138.126 34.8743C137.485 34.2335 137.125 33.3645 137.125 32.4583V8.54167C137.125 7.63551 137.485 6.76647 138.126 6.12572C138.766 5.48497 139.636 5.125 140.542 5.125H164.458ZM163.604 31.6042V22.55C163.604 21.073 163.017 19.6564 161.973 18.612C160.929 17.5676 159.512 16.9808 158.035 16.9808C156.583 16.9808 154.892 17.8692 154.072 19.2017V17.3054H149.305V31.6042H154.072V23.1821C154.072 21.8667 155.131 20.7904 156.446 20.7904C157.081 20.7904 157.689 21.0424 158.137 21.4909C158.586 21.9394 158.838 22.5478 158.838 23.1821V31.6042H163.604ZM143.753 14.6233C144.515 14.6233 145.245 14.321 145.783 13.7827C146.321 13.2445 146.623 12.5145 146.623 11.7533C146.623 10.1646 145.342 8.86625 143.753 8.86625C142.988 8.86625 142.253 9.17042 141.712 9.71186C141.17 10.2533 140.866 10.9876 140.866 11.7533C140.866 13.3421 142.165 14.6233 143.753 14.6233ZM146.128 31.6042V17.3054H141.396V31.6042H146.128Z" fill="white"/>
<path fill-rule="evenodd" clip-rule="evenodd" d="M234.876 36.5156L222.068 17.8472L222.09 17.8647L233.638 4.48438H229.779L220.371 15.375L212.901 4.48438H202.779L214.737 21.9138L214.735 21.9123L202.124 36.5156H205.983L216.442 24.3991L224.755 36.5156H234.876ZM211.371 7.3963L229.342 33.6037H226.284L208.299 7.3963H211.371Z" fill="white"/>
</svg>
